<?xml version="1.0" standalone="no"?>
<!DOCTYPE svg PUBLIC "-//W3C//DTD SVG 20010904//EN"
 "http://www.w3.org/TR/2001/REC-SVG-20010904/DTD/svg10.dtd">
<svg version="1.0" xmlns="http://www.w3.org/2000/svg"
 width="900.000000pt" height="900.000000pt" viewBox="0 0 900.000000 900.000000"
 preserveAspectRatio="xMidYMid meet">
<metadata>
Created by potrace 1.11, written by Peter Selinger 2001-2013
</metadata>
<g transform="translate(0.000000,900.000000) scale(0.100000,-0.100000)"
fill="#000000" stroke="none">
<path d="M4325 6879 c-81 -25 -304 -81 -420 -104 -71 -15 -159 -36 -195 -47
-333 -102 -587 -412 -667 -815 -38 -192 -14 -563 36 -563 17 0 19 13 18 203
-2 205 6 276 44 427 74 298 299 576 539 665 25 9 54 21 65 26 20 9 179 47 290
69 33 7 71 16 85 21 14 4 43 11 65 15 22 3 80 20 128 36 l88 30 207 -6 c207
-5 262 -10 467 -41 61 -9 137 -20 170 -25 193 -28 345 -65 345 -86 0 -7 9 -18
20 -24 17 -9 20 -8 20 14 0 13 -6 26 -14 29 -8 3 -16 16 -18 28 -5 40 -56 58
-231 84 -230 35 -439 53 -742 65 -143 5 -262 10 -265 9 -3 0 -18 -5 -35 -10z"/>
<path d="M5610 6803 c0 -17 24 -33 48 -33 38 0 24 34 -16 38 -17 2 -32 -1 -32
-5z"/>
<path d="M5676 6721 c-3 -4 4 -31 14 -61 15 -45 19 -94 22 -269 l3 -213 -35
-30 c-33 -27 -40 -29 -100 -25 -36 3 -92 12 -125 21 -33 9 -78 20 -100 25
-197 42 -225 47 -440 72 -118 14 -553 21 -560 9 -4 -6 52 -10 157 -11 151 -1
250 -7 403 -24 33 -4 62 -9 64 -11 2 -2 -96 -4 -218 -4 -476 0 -711 -59 -868
-217 -64 -65 -77 -73 -86 -49 -9 24 29 89 77 134 25 23 41 42 36 42 -19 0 -87
-70 -106 -109 -10 -23 -22 -41 -26 -41 -5 0 -8 -9 -8 -19 0 -11 -4 -22 -9 -25
-17 -11 -23 -141 -10 -201 11 -49 14 -54 23 -36 8 14 15 17 27 11 22 -13 36
19 42 95 3 33 15 81 26 106 32 72 161 179 215 179 9 0 16 4 16 9 0 5 12 11 28
14 15 3 55 12 89 21 209 53 639 44 993 -21 47 -8 105 -19 130 -23 25 -5 72
-16 105 -25 81 -23 130 -34 197 -48 47 -9 60 -8 81 5 54 36 57 60 57 390 0
173 -4 309 -10 318 -9 15 -96 24 -104 11z m-587 -537 c2 -2 -10 -4 -27 -4 -18
0 -32 5 -32 10 0 9 47 4 59 -6z m630 -88 c4 -23 -24 -46 -56 -46 -31 0 -40 26
-17 51 23 25 67 22 73 -5z"/>
<path d="M4330 6334 c-398 -48 -603 -188 -642 -438 -9 -58 -9 -91 1 -143 18
-101 31 -112 31 -27 0 199 76 342 228 431 214 126 644 158 1147 84 95 -14 308
-58 375 -77 30 -8 80 -18 111 -21 52 -5 57 -3 77 22 23 29 29 79 12 105 -7 12
-12 12 -29 -4 -19 -17 -21 -17 -21 -3 0 15 -3 14 -20 -3 -11 -11 -32 -21 -47
-21 -24 -2 -25 -2 -5 -6 12 -2 22 -8 22 -14 0 -23 -59 -19 -197 15 -306 73
-483 96 -778 101 -126 2 -246 1 -265 -1z"/>
<path d="M4230 6230 c0 -5 11 -10 24 -10 14 0 28 5 31 10 4 6 -7 10 -24 10
-17 0 -31 -4 -31 -10z"/>
<path d="M4150 6216 c0 -9 30 -14 35 -6 4 6 -3 10 -14 10 -12 0 -21 -2 -21 -4z"/>
<path d="M4098 6193 c7 -3 16 -2 19 1 4 3 -2 6 -13 5 -11 0 -14 -3 -6 -6z"/>
<path d="M4045 6180 c-3 -5 1 -10 9 -10 9 0 16 5 16 10 0 6 -4 10 -9 10 -6 0
-13 -4 -16 -10z"/>
<path d="M4010 6159 c0 -5 5 -7 10 -4 6 3 10 8 10 11 0 2 -4 4 -10 4 -5 0 -10
-5 -10 -11z"/>
<path d="M4042 5266 c123 -113 236 -170 803 -402 355 -146 600 -279 816 -444
89 -68 138 -92 108 -52 -36 48 -142 150 -204 196 -166 124 -363 224 -710 361
-412 162 -450 178 -570 237 -66 33 -152 80 -191 104 -90 56 -113 56 -52 0z"/>
<path d="M4000 5221 c0 -18 -3 -19 -25 -11 -43 16 -30 -13 26 -61 143 -122
250 -175 869 -435 116 -49 365 -182 467 -250 63 -42 116 -74 119 -71 3 3 -6
23 -20 44 -26 37 -33 63 -18 63 4 -1 25 -9 47 -20 22 -11 44 -19 49 -20 19 0
-95 84 -194 144 -170 103 -326 176 -715 333 -247 99 -431 192 -582 291 -21 13
-23 13 -23 -7z"/>
<path d="M3463 4695 c106 -97 250 -169 707 -350 354 -140 556 -237 709 -339
63 -42 115 -75 117 -73 10 9 -102 106 -189 164 -139 91 -351 191 -721 338
-320 127 -458 190 -581 265 -85 52 -102 50 -42 -5z"/>
<path d="M3345 4660 c-7 -12 96 -103 173 -153 75 -48 249 -137 269 -137 7 0
13 -4 13 -10 0 -5 6 -10 14 -10 7 0 38 -11 67 -24 30 -13 104 -43 164 -66 61
-23 124 -48 140 -55 17 -7 53 -21 80 -30 28 -10 70 -27 95 -38 25 -10 59 -26
77 -33 17 -8 34 -14 37 -14 19 0 264 -129 338 -179 67 -44 78 -45 68 -10 -7
22 -5 29 6 29 66 0 -118 125 -348 235 -73 35 -163 75 -201 89 -37 14 -82 32
-100 39 -17 8 -63 27 -102 42 -38 15 -79 31 -90 35 -295 118 -422 177 -547
255 -48 30 -74 41 -79 33 -5 -8 -15 -8 -38 0 -17 6 -33 7 -36 2z"/>
<path d="M5904 3796 c-4 -9 0 -45 7 -79 21 -94 18 -342 -5 -442 -86 -372 -339
-688 -681 -849 -144 -69 -308 -116 -515 -148 -108 -17 -544 -16 -690 1 -121
14 -382 55 -485 76 -115 23 -336 74 -387 90 -59 17 -80 11 -76 -23 6 -52 43
-66 348 -131 389 -84 607 -112 915 -118 253 -6 359 1 530 33 346 66 630 220
819 444 217 258 326 546 313 825 -5 110 -35 241 -71 309 -13 25 -16 27 -22 12z"/>
<path d="M6026 3693 c12 -62 9 -312 -5 -388 -72 -388 -296 -733 -615 -947
-192 -128 -380 -201 -626 -243 -70 -12 -157 -17 -335 -16 -343 0 -561 25 -960
107 -162 34 -185 39 -300 69 -224 58 -204 56 -222 26 -9 -14 -28 -36 -42 -49
l-26 -23 28 -24 c24 -22 84 -43 207 -75 83 -21 250 -60 305 -70 33 -6 74 -15
90 -20 32 -10 289 -52 420 -69 186 -24 304 -31 534 -31 242 0 294 5 466 42 50
10 101 21 115 24 14 3 34 9 45 14 11 4 39 15 62 24 66 24 204 87 213 96 3 3
21 14 40 24 62 35 173 122 254 200 44 42 84 76 89 76 6 0 8 3 4 6 -4 5 26 48
111 159 12 16 106 168 120 195 20 37 82 188 98 240 8 25 19 54 24 65 5 11 17
61 27 110 23 117 23 409 1 470 -18 49 -31 51 -38 5 -10 -60 -19 -65 -46 -26
-13 19 -24 39 -24 45 0 5 -5 13 -11 16 -7 5 -8 -5 -3 -32z m-65 -797 c6 -6 9
-4 9 6 0 9 5 20 10 23 15 9 -27 -99 -68 -175 -201 -374 -534 -633 -932 -723
-174 -40 -195 -42 -475 -42 -275 0 -409 9 -595 42 -102 17 -123 23 -116 31 3
3 -2 14 -11 25 -18 20 -17 20 37 13 193 -22 328 -29 585 -30 298 0 388 8 545
51 30 8 69 18 85 23 79 20 192 71 310 139 153 88 339 268 468 453 48 69 87
129 87 133 0 4 10 24 22 44 19 30 23 33 26 16 2 -11 8 -24 13 -29z"/>
<path d="M5097 3513 c-6 -123 -22 -184 -76 -298 -97 -204 -266 -326 -511 -371
-298 -54 -804 60 -1325 299 -66 30 -137 59 -157 65 -69 19 -132 -14 -158 -83
-14 -37 -26 -674 -13 -729 5 -22 16 -44 25 -50 37 -23 41 3 45 261 6 461 8
480 64 503 30 13 71 4 141 -31 85 -43 353 -150 483 -192 258 -86 420 -117 649
-124 177 -6 251 1 381 39 190 55 362 193 443 358 23 47 49 117 58 155 27 119
9 289 -32 302 -7 3 -13 -32 -17 -104z"/>
<path d="M5261 3516 c-15 -27 -46 -35 -54 -13 -2 6 -7 -15 -11 -48 -26 -241
-119 -416 -296 -558 l-35 -28 34 18 c19 10 62 45 95 78 61 60 166 203 166 225
0 6 5 8 10 5 6 -3 10 -16 10 -28 1 -22 1 -22 17 -2 15 19 15 19 9 -10 -12 -55
-70 -156 -125 -217 -122 -135 -277 -216 -506 -264 -151 -32 -571 -20 -648 18
-10 5 -16 16 -13 24 3 9 -1 14 -12 14 -9 0 -24 5 -32 11 -11 8 2 9 45 3 178
-22 355 -30 355 -16 0 7 -40 13 -102 15 -170 8 -347 44 -593 118 -88 27 -154
50 -372 130 -96 35 -211 17 -228 -34 -12 -36 -18 -403 -7 -423 9 -15 12 -14
26 15 15 27 22 32 49 29 l32 -3 6 95 c4 52 12 111 18 130 15 48 14 51 -15 40
-19 -8 -31 -6 -49 8 -56 40 -10 117 69 117 24 0 50 -6 59 -14 26 -21 21 -59
-8 -73 -36 -16 -26 -32 26 -38 24 -3 91 -22 149 -42 294 -102 474 -144 745
-173 174 -18 261 -18 395 0 218 29 345 71 486 161 143 91 297 291 321 417 3
18 10 40 14 49 15 29 13 219 -3 257 l-13 33 -14 -26z"/>
<path d="M4805 2840 c-3 -5 -1 -10 4 -10 6 0 11 5 11 10 0 6 -2 10 -4 10 -3 0
-8 -4 -11 -10z"/>
<path d="M4770 2819 c0 -5 5 -7 10 -4 6 3 10 8 10 11 0 2 -4 4 -10 4 -5 0 -10
-5 -10 -11z"/>
<path d="M4625 2770 c-3 -5 -1 -10 4 -10 6 0 11 5 11 10 0 6 -2 10 -4 10 -3 0
-8 -4 -11 -10z"/>
<path d="M4540 2750 c0 -5 6 -10 14 -10 8 0 18 5 21 10 3 6 -3 10 -14 10 -12
0 -21 -4 -21 -10z"/>
<path d="M4370 2730 c0 -13 80 -13 100 0 11 7 -2 10 -42 10 -32 0 -58 -4 -58
-10z"/>
</g>
</svg>
